inDegrees=yes
name=ik_lifting_orientations
DataType=double
version=3
OpenSimVersion=4.5-2024-01-10-34fd6af
endheader
time	pelvis_tilt	pelvis_list	pelvis_rotation	pelvis_tx	pelvis_ty	pelvis_tz	hip_flexion_r	hip_adduction_r	hip_rotation_r	knee_angle_r	knee_angle_r_beta	ankle_angle_r	subtalar_angle_r	mtp_angle_r	hip_flexion_l	hip_adduction_l	hip_rotation_l	knee_angle_l	knee_angle_l_beta	ankle_angle_l	subtalar_angle_l	mtp_angle_l	lumbar_extension	lumbar_bending	lumbar_rotation	arm_flex_r	arm_add_r	arm_rot_r	elbow_flex_r	pro_sup_r	wrist_flex_r	wrist_dev_r	arm_flex_l	arm_add_l	arm_rot_l	elbow_flex_l	pro_sup_l	wrist_flex_l	wrist_dev_l
1.94	-0.5701730429356658	1.252678732983414	82.55839141218718	0	0.9399999998679526	0	28.99439230947205	-9.412766670164086	0	39.88740305244966	0.6961665133352829	-4.881510970045261	0	0	28.99439230947205	-9.412766670164086	0	39.88740305244966	0.6961665133352829	-4.881510970045261	0	0	-13.30673562214837	3.315130011884894	38.10964556282299	94.56719882617205	25.80620522031487	-13.05978678772797	104.1373273285867	35.14350811428154	0	0	0	-5.969978311864904	0	54.95873590922757	35.14350811428154	0	0
1.95	-0.8322549252382767	1.142195142190957	80.54691594027432	0	0.9399999998679526	0	29.00131632680506	-9.41360914996068	0	39.89477381561568	0.6962951574209147	-4.881732371683903	0	0	29.00131632680506	-9.41360914996068	0	39.89477381561568	0.6962951574209147	-4.881732371683903	0	0	-13.26588461505504	2.59916585111944	40.02974311067681	94.23339296284624	27.23669248799308	-13.19586040032073	105.2019225816497	35.13160250040285	0	0	0	-5.97191028686998	0	54.97059473071504	35.13160250040285	0	0
1.96	-1.638771127240392	1.456023529396628	79.86603087777596	0	0.9399999998679526	0	29.0072557908128	-9.414335925495415	0	39.90106549855659	0.6964049680037252	-4.881923541355336	0	0	29.0072557908128	-9.414335925495415	0	39.90106549855659	0.6964049680037252	-4.881923541355336	0	0	-13.45394435253913	1.627101950390055	40.5061370697392	93.97807541319247	28.71481283735064	-13.76628858004069	106.1698789837196	35.12139754938547	0	0	0	-5.973560233047298	0	54.98075945560373	35.12139754938547	0	0
1.97	-1.834747623434899	1.332345065190369	78.33444029707394	0	0.9399999998679526	0	29.01211590618722	-9.414927442966892	0	39.90623130446084	0.6964951283252733	-4.882078929464771	0	0	29.01211590618722	-9.414927442966892	0	39.90623130446084	0.6964951283252733	-4.882078929464771	0	0	-14.97825275071935	0.9807717180375815	40.97319966769972	94.23592802145656	31.25635155259936	-12.7362291764	106.0768605282865	35.1130425343074	0	0	0	-5.974914925886738	0	54.98908161813876	35.1130425343074	0	0
1.98	-1.667883294410526	1.962115556621867	76.48045326880076	0	0.9399999998679526	0	29.02374815977667	-9.41634771792142	0	39.91855710659042	0.6967102541553838	-4.882452183240828	0	0	29.02374815977667	-9.41634771792142	0	39.91855710659042	0.6967102541553838	-4.882452183240828	0	0	-15.64039436560944	0.5364531812689668	42.76088675897781	95.18495894054232	30.66718631641409	-12.87407780104205	104.9501657979844	35.09305511196379	0	0	0	-5.978148777508879	0	55.00899031827913	35.09305511196379	0	0
1.99	-1.668971014737834	1.956377176680944	76.48993090646134	0	0.9399999998679526	0	29.0323427068714	-9.417392947471715	0	39.92768085389129	0.696869493585904	-4.882726546779319	0	0	29.0323427068714	-9.417392947471715	0	39.92768085389129	0.696869493585904	-4.882726546779319	0	0	-15.4080852810013	-0.185787796158743	40.98567777224696	95.8773107054881	33.70576048883222	-14.28306655247602	104.5700951569045	35.07828271041157	0	0	0	-5.98054312209042	0	55.02370463483399	35.07828271041157	0	0
2	-1.86696280660011	1.880259767557194	74.92205927430835	0	0.9399999998679526	0	29.03764601333013	-9.41803551554456	0	39.93332223256054	0.6969679542180341	-4.882895045281383	0	0	29.03764601333013	-9.41803551554456	0	39.93332223256054	0.6969679542180341	-4.882895045281383	0	0	-16.89839761775108	-0.9722234645523212	41.4174995518401	95.87484857922568	35.80181012709174	-12.8357606566666	104.4103779504816	35.06916424542423	0	0	0	-5.982023755884679	0	55.03278730496404	35.06916424542423	0	0
2.01	-1.857575626239814	1.850575275563993	74.94433766676848	0	0.9399999998679526	0	29.08818120673638	-9.422661306545098	0	39.99751071452904	0.6980882545702415	-4.88403170667922	0	0	29.08818120673638	-9.422661306545098	0	39.99751071452904	0.6980882545702415	-4.88403170667922	0	0	-17.6084194061125	-1.322972471368152	39.97574900185035	96.29760873324254	37.98616357254325	-14.54454277103392	104.67338917102	34.97970998655849	0	0	0	-5.998655142242826	0	55.12193271417961	34.97970998655849	0	0
2.02	-2.461940391342422	2.302892255667918	75.79917267596988	0	0.9399999998679526	0	29.09794142221064	-9.423844696655397	0	40.00784056057056	0.6982685443948901	-4.884341734557101	0	0	29.09794142221064	-9.423844696655397	0	40.00784056057056	0.6982685443948901	-4.884341734557101	0	0	-17.91584121188986	-1.730767380039286	38.98827558988609	96.98727571230634	38.29787200495321	-14.08139137332207	102.6443478570074	34.96294010331587	0	0	0	-6.001373543940518	0	55.13863672846995	34.96294010331587	0	0
2.03	-1.663919547579431	1.960114010678619	76.47911108114066	0	0.9399999998679526	0	29.11023505113797	-9.425335291993026	0	40.02083692312821	0.698495373712304	-4.884732099418018	0	0	29.11023505113797	-9.425335291993026	0	40.02083692312821	0.698495373712304	-4.884732099418018	0	0	-17.77330204562378	-0.7004618263540614	38.57724842549622	99.16431293770115	38.71427163266807	-14.09242458257708	100.6288755276839	34.94182076754398	0	0	0	-6.004795228041855	0	55.15967309238775	34.94182076754398	0	0
